<?xml version="1.0" encoding="UTF-8"?>
<svg version="1.1" xmlns="http://www.w3.org/2000/svg" width="1920" height="1080">
<path d="M0 0 C633.6 0 1267.2 0 1920 0 C1920 356.4 1920 712.8 1920 1080 C1286.4 1080 652.8 1080 0 1080 C0 723.6 0 367.2 0 0 Z " fill="#000000" transform="translate(0,0)"/>
<path d="M0 0 C13.2 0 26.4 0 40 0 C44.56591287 4.56591287 48.85899714 8.89410032 53.02734375 13.74609375 C54.96496668 15.95997183 56.95173434 18.12263563 58.95263672 20.27929688 C63.01770775 24.66114481 66.94222509 29.08619481 70.6875 33.75 C73.95154719 37.80533135 77.38424103 41.49462045 81.11328125 45.12109375 C83.55130855 47.54902569 85.77668484 50.12713021 88.01953125 52.734375 C90.46605809 55.5331631 92.98078499 58.26688136 95.5 61 C99.12112513 64.93263943 102.68959413 68.90214575 106.19140625 72.94140625 C108.4301125 75.4895665 110.71410212 77.99410593 113 80.5 C116.45328153 84.28662998 119.86099051 88.1047632 123.22265625 91.97265625 C126.05554282 95.20401478 128.94443867 98.38468081 131.82421875 101.57421875 C133.67443563 103.63702788 135.49944809 105.7171237 137.3125 107.8125 C140.47076099 111.44192347 143.72934761 114.97227454 147 118.5 C150.83416247 122.63552741 154.61870692 126.80043106 158.3125 131.0625 C163.79627883 137.35869051 169.4516794 143.50007179 175.125 149.625 C178.91041559 153.71249365 182.64731251 157.82961909 186.29296875 162.04296875 C188.33633431 164.3855915 190.41680859 166.69273422 192.5 169 C195.76390848 172.61676345 198.98790949 176.26389608 202.1875 179.9375 C205.03633791 183.17928107 207.93577601 186.37518819 210.828125 189.578125 C212.65744304 191.61801202 214.45965658 193.67603782 216.25 195.75 C220.13912071 200.22067147 224.19737646 204.53186428 228.23901367 208.86401367 C231.61263592 212.48648977 234.91627648 216.15271853 238.1484375 219.90234375 C240.610051 222.69113373 243.15222572 225.40344429 245.6875 228.125 C249.86549554 232.61619839 253.91404259 237.1915872 257.875 241.875 C262.78556998 247.67647604 267.89963545 253.25582783 273.11376953 258.78515625 C276.7699998 262.66481709 280.33613272 266.59611679 283.765625 270.6796875 C284.98507446 272.13751383 284.98507446 272.13751383 287 273 C287.3403125 272.195625 287.3403125 272.195625 287.6875 271.375 C289.45570089 268.17539839 291.53670203 265.70962777 294 263 C294.66 263 295.32 263 296 263 C296.32484375 262.19755859 296.32484375 262.19755859 296.65625 261.37890625 C298.48471918 258.14187796 300.95611387 255.614711 303.5 252.9375 C304.58759833 251.77637759 305.67483214 250.61491365 306.76171875 249.453125 C307.30618652 248.87369141 307.8506543 248.29425781 308.41162109 247.69726562 C313.49697747 242.26329736 318.50167046 236.74987916 323.375 231.125 C326.5102371 227.5142767 329.74905447 224.0061171 333 220.5 C336.83042822 216.36854657 340.61262565 212.20890451 344.30078125 207.94921875 C347.81406038 203.91904339 351.41746334 199.96853388 355 196 C356.50028679 194.33359149 358.00028872 192.66692647 359.5 191 C361.7717129 188.47499507 364.04435414 185.95086696 366.3203125 183.4296875 C369.67953282 179.70607717 373.02982984 175.97886481 376.3125 172.1875 C378.91804428 169.1890082 381.59888921 166.2716524 384.30810547 163.36743164 C388.59369621 158.77267473 392.75681553 154.15819269 396.6875 149.25 C400.12523497 144.963671 403.81042285 141.14256283 407.74609375 137.31640625 C411.01802193 133.9537487 413.87802042 130.29220668 416.80859375 126.6328125 C419.40220228 123.51678371 422.20174654 120.71025928 425.10546875 117.88671875 C427.58986131 115.41257111 429.86592786 112.78901319 432.15234375 110.1328125 C434.2371655 107.72623179 436.36521533 105.36235055 438.5 103 C441.15113994 100.06321535 443.78290171 97.11397458 446.375 94.125 C448.85022446 91.27734593 451.3852632 88.49290367 453.94995117 85.72558594 C457.97453104 81.38177007 461.86275081 77.00459766 465.5625 72.375 C469.31827837 67.70547233 473.38394835 63.51605208 477.6640625 59.328125 C480.30075469 56.70025118 482.73591517 53.95453299 485.15625 51.12890625 C487.3939919 48.54507292 489.69485875 46.02385195 492 43.5 C494.84524228 40.38092989 497.6719958 37.25244609 500.4375 34.0625 C503.39884185 30.65310643 506.44180032 27.32231693 509.5 24 C516.6593845 16.21096673 523.37661505 8.27923118 530 0 C543.53 0 557.06 0 571 0 C571 208.89 571 417.78 571 633 C529.09 633 487.18 633 444 633 C444 518.82 444 404.64 444 287 C443.34 287 442.68 287 442 287 C441.6596875 287.8353125 441.6596875 287.8353125 441.3125 288.6875 C439.64384863 291.62750479 437.42141963 293.6899774 435 296 C428.67866962 302.18973192 428.67866962 302.18973192 422.75 308.75 C418.89896102 313.25653498 414.67577928 317.37713321 410.44238281 321.52050781 C408.00696353 323.91843692 405.90266253 326.1460062 404 329 C403.34 329 402.68 329 402 329 C401.74855225 329.57814453 401.49710449 330.15628906 401.23803711 330.75195312 C399.84148458 333.28783475 398.26221701 334.94901907 396.19140625 336.96875 C395.44439453 337.70480469 394.69738281 338.44085938 393.92773438 339.19921875 C393.14720703 339.95847656 392.36667969 340.71773438 391.5625 341.5 C390.019851 343.00808342 388.47940327 344.51842261 386.94140625 346.03125 C386.25763916 346.69705078 385.57387207 347.36285156 384.86938477 348.04882812 C382.94385621 349.96829586 382.94385621 349.96829586 381.37866211 352.24804688 C380.92370361 352.82619141 380.46874512 353.40433594 380 354 C379.34 354 378.68 354 378 354 C377.78730469 354.54140625 377.57460938 355.0828125 377.35546875 355.640625 C375.50979821 358.8532619 372.96033346 361.20546513 370.3125 363.75 C366.95978708 367.03156782 363.64957297 370.28283364 360.625 373.875 C357.29263731 377.79832356 353.65584439 381.38208423 350 385 C344.61461456 390.31201345 344.61461456 390.31201345 339.5625 395.9375 C335.49992007 400.74817649 330.94322955 405.08031681 326.47338867 409.50708008 C322.77011716 413.18827271 319.23322518 416.92016287 315.8671875 420.9140625 C312.65788624 424.49934885 309.1890355 427.83001467 305.76831055 431.2121582 C302.22497795 434.73086651 298.86513026 438.33559399 295.6328125 442.14453125 C292.59514691 445.59642396 289.28818715 448.78867957 286 452 C280.87221259 447.75857789 276.30317773 443.27866818 271.8125 438.375 C267.13304189 433.31801589 262.40689172 428.3369056 257.5 423.5 C253.73099556 419.78081432 250.14846229 415.97245564 246.71875 411.9375 C243.95876507 408.82624426 240.96363501 405.954821 238.00390625 403.03515625 C235.81835893 400.81552632 233.91127443 398.45735284 232 396 C229.54753493 393.51012444 227.05946412 391.05860371 224.5703125 388.60546875 C223.76335937 387.80753906 222.95640625 387.00960938 222.125 386.1875 C221.32320312 385.39730469 220.52140625 384.60710937 219.6953125 383.79296875 C217.61861613 381.64102976 215.6589965 379.47085625 213.7109375 377.20703125 C209.8487304 372.75381956 205.70376393 368.62856243 201.5 364.5 C196.69049376 359.77653144 192.06306926 354.9993045 187.66601562 349.88867188 C185.07801034 346.95479015 182.29695629 344.23281366 179.5 341.5 C175.37785696 337.42935449 171.42276184 333.30998672 167.671875 328.890625 C165.70245971 326.66352921 163.61625658 324.58785046 161.5 322.5 C158.83730372 319.87292508 156.2873525 317.23270989 153.875 314.375 C149.69356435 309.48684284 145.0681859 305.04309371 140.50097656 300.52050781 C136.12923822 296.17509203 131.95053702 291.73504083 128 287 C127.67 286.67 127.34 286.34 127 286 C126.67 400.18 126.34 514.36 126 632 C84.42 632 42.84 632 0 632 C0 423.44 0 214.88 0 0 Z " fill="#1DB854" transform="translate(627,125)"/>
<path d="M0 0 C4.27607559 3.43351158 7.87324697 7.23783537 11.171875 11.6171875 C11.62691406 12.20371094 12.08195312 12.79023437 12.55078125 13.39453125 C23.5380678 29.13493862 26.26849085 49.98621765 23.109375 68.4921875 C19.36701181 87.76968233 8.72979828 104.22760754 -7.578125 115.3046875 C-20.16756898 122.7279453 -33.32789822 124.97172033 -47.703125 124.9296875 C-49.34474609 124.95385742 -49.34474609 124.95385742 -51.01953125 124.97851562 C-61.80073362 124.98489503 -71.50810377 122.86358903 -81.078125 117.8671875 C-81.76068359 117.51648193 -82.44324219 117.16577637 -83.14648438 116.80444336 C-88.37786646 114.0316857 -92.75571122 110.94758224 -96.828125 106.6171875 C-97.50101563 105.92882812 -98.17390625 105.24046875 -98.8671875 104.53125 C-115.04980128 87.2576735 -117.66521243 67.44358528 -117.00732422 44.68261719 C-116.04224727 28.17375316 -106.74887989 12.85299868 -95.08203125 1.5625 C-68.56625305 -21.32286836 -27.32789137 -20.93553777 0 0 Z " fill="#1DB854" transform="translate(1410.828125,638.3828125)"/>
<path d="M0 0 C13.53 0 27.06 0 41 0 C41 208.89 41 417.78 41 633 C-0.91 633 -42.82 633 -86 633 C-86.04217371 587.28369753 -86.04217371 587.28369753 -86.05078125 570.08447266 C-86.05131248 569.02662166 -86.05184372 567.96877066 -86.05239105 566.87886357 C-86.05624916 559.00257589 -86.05951665 551.12628806 -86.0625 543.25 C-86.06315145 541.57969931 -86.06315145 541.57969931 -86.06381607 539.87565517 C-86.08800488 476.12364858 -85.97737333 412.37534667 -85.5 348.625 C-85.49402628 347.8248881 -85.48805257 347.02477619 -85.48189783 346.20041847 C-85.33431642 326.46683348 -85.17527388 306.73335994 -85 287 C-84.67 287 -84.34 287 -84 287 C-84 400.52 -84 514.04 -84 631 C-43.41 631 -2.82 631 39 631 C38.67 423.43 38.34 215.86 38 2 C25.79 1.67 13.58 1.34 1 1 C1 2.65 1 4.3 1 6 C-1.8125 8.0625 -1.8125 8.0625 -5 10 C-6.02323436 11.31558703 -7.03126968 12.64377755 -8 14 C-8.66 14 -9.32 14 -10 14 C-10.33 14.99 -10.66 15.98 -11 17 C-11.495 15.515 -11.495 15.515 -12 14 C-11.21753906 13.15695313 -10.43507813 12.31390625 -9.62890625 11.4453125 C-8.60665175 10.33865166 -7.58452284 9.23187479 -6.5625 8.125 C-5.7880957 7.29162109 -5.7880957 7.29162109 -4.99804688 6.44140625 C-2.17895264 3.45250685 -2.17895264 3.45250685 0 0 Z " fill="#228A4C" transform="translate(1157,125)"/>
<path d="M0 0 C0.33 0 0.66 0 1 0 C1 208.56 1 417.12 1 632 C42.58 632 84.16 632 127 632 C127 632.33 127 632.66 127 633 C84.43 633 41.86 633 -2 633 C-1.90368195 559.83420932 -1.90368195 559.83420932 -1.8731842 537.20159912 C-1.87209701 536.39441837 -1.87100981 535.58723763 -1.86988967 534.75559686 C-1.83328677 507.59326801 -1.79532176 480.43094125 -1.7563324 453.26861572 C-1.75442488 451.93935669 -1.75442488 451.93935669 -1.75247882 450.58324395 C-1.72483684 431.32603341 -1.69697385 412.0688232 -1.66888306 392.81161331 C-1.65510942 383.3683868 -1.64138465 373.92516021 -1.62768555 364.48193359 C-1.62563942 363.07233407 -1.62563942 363.07233407 -1.62355196 361.63425778 C-1.57933164 331.15458209 -1.5383399 300.6749031 -1.49901587 270.19522073 C-1.45860076 238.88302594 -1.41494156 207.57083731 -1.36717889 176.25865281 C-1.36043997 171.83976568 -1.35373828 167.42087849 -1.34705925 163.00199127 C-1.34574352 162.13225931 -1.34442779 161.26252735 -1.3430722 160.36643988 C-1.321957 146.34534909 -1.30427901 132.32425595 -1.28787469 118.30315895 C-1.27132463 104.21983516 -1.25118134 90.13652019 -1.22733159 76.05320683 C-1.21325849 67.67791917 -1.20197902 59.3026384 -1.19463562 50.92734208 C-1.18886034 44.68563191 -1.177942 38.44394094 -1.1649667 32.20224181 C-1.16051512 29.66786954 -1.15776814 27.13349362 -1.15683801 24.59911761 C-1.15533842 21.1712244 -1.14779961 17.7433975 -1.1386652 14.31551743 C-1.13968787 13.3168922 -1.14071054 12.31826697 -1.14176419 11.28938037 C-1.13808348 10.37877178 -1.13440277 9.46816319 -1.13061053 8.52996039 C-1.12951866 7.74568982 -1.1284268 6.96141924 -1.12730185 6.15338288 C-0.99921485 3.98671877 -0.59654168 2.08237547 0 0 Z " fill="#011A04" transform="translate(626,125)"/>
<path d="M0 0 C1.83718021 -0.02654136 3.6742133 -0.06739448 5.51074219 -0.12304688 C8.16337124 -0.2025013 10.81314947 -0.23536449 13.46679688 -0.25878906 C14.68751389 -0.30827698 14.68751389 -0.30827698 15.93289185 -0.35876465 C20.74292565 -0.34205773 23.12049212 0.42004051 26.58178711 3.8527832 C27.62408935 5.03724534 28.64813594 6.23822246 29.64648438 7.45996094 C30.37738281 8.26304687 31.10828125 9.06613281 31.86132812 9.89355469 C32.42980469 10.55484375 32.99828125 11.21613281 33.58398438 11.89746094 C34.46376953 12.91646484 34.46376953 12.91646484 35.36132812 13.95605469 C35.78542969 14.45234375 36.20953125 14.94863281 36.64648438 15.45996094 C33.52086966 16.50183251 32.59968255 16.69839888 29.64648438 15.45996094 C28.52148438 13.52246094 28.52148438 13.52246094 27.64648438 11.45996094 C26.98648438 10.79996094 26.32648437 10.13996094 25.64648438 9.45996094 C25.15148437 7.97496094 25.15148437 7.97496094 24.64648438 6.45996094 C23.32648437 5.13996094 22.00648438 3.81996094 20.64648438 2.45996094 C8.76648438 2.45996094 -3.11351562 2.45996094 -15.35351562 2.45996094 C-15.68351563 209.36996094 -16.01351562 416.27996094 -16.35351562 629.45996094 C-16.68351563 629.45996094 -17.01351562 629.45996094 -17.35351562 629.45996094 C-17.37064618 569.60249397 -17.38654688 509.74502673 -17.39585876 449.88755798 C-17.39599682 449.00238086 -17.39613488 448.11720374 -17.39627712 447.20520308 C-17.39926967 427.97032226 -17.4020399 408.73544141 -17.40458095 389.50056053 C-17.40582835 380.06848891 -17.40712489 370.63641731 -17.40844727 361.2043457 C-17.40857802 360.26571525 -17.40870878 359.3270848 -17.40884351 358.360011 C-17.4131088 327.90786346 -17.42062305 297.45571777 -17.42981285 267.00357136 C-17.43923538 235.72358266 -17.44539873 204.44359498 -17.44743062 173.16360488 C-17.44771879 168.75078274 -17.44804443 164.33796061 -17.44839287 159.92513847 C-17.44846029 159.05658739 -17.44852771 158.18803632 -17.44859718 157.29316551 C-17.44978129 143.2826359 -17.45442576 129.27210945 -17.46034766 115.26158113 C-17.46622043 101.19399791 -17.46848725 87.12641783 -17.467017 73.05883343 C-17.46625343 64.68957521 -17.46831078 56.32032847 -17.47431317 47.95107231 C-17.47847937 41.71919069 -17.47749074 35.48732029 -17.47441452 29.25543826 C-17.47398857 26.72111659 -17.47528648 24.18679397 -17.47839881 21.65247417 C-17.48235835 18.23186893 -17.4802818 14.81132168 -17.47656345 11.39071751 C-17.47919047 10.38581558 -17.48181748 9.38091366 -17.4845241 8.34556016 C-17.48227681 7.44312687 -17.48002951 6.54069357 -17.47771412 5.61091381 C-17.4778701 4.82742314 -17.47802608 4.04393246 -17.47818679 3.23669964 C-17.11828688 -1.89237812 -4.14666132 0.04574609 0 0 Z " fill="#29B060" transform="translate(645.353515625,125.5400390625)"/>
<path d="M0 0 C4.63519455 4.63519455 4.16283023 13.46551381 4.3125 19.6875 C3.93379644 38.98034244 -2.1134613 56.48624053 -15 71 C-15.99 71.495 -15.99 71.495 -17 72 C-17 71.01 -17 70.02 -17 69 C-16.34 69 -15.68 69 -15 69 C-15 67.68 -15 66.36 -15 65 C-13.37660195 63.29115995 -11.70680947 61.62553283 -10 60 C-8.70480005 57.83379456 -8.70480005 57.83379456 -8 56 C-7.34 56 -6.68 56 -6 56 C-5.67 52.04 -5.34 48.08 -5 44 C-4.67 44.99 -4.34 45.98 -4 47 C-3.34 47 -2.68 47 -2 47 C-2.04125 45.989375 -2.0825 44.97875 -2.125 43.9375 C-1.99426157 39.81923948 -1.26749214 36.88169467 0 33 C-0.495 32.505 -0.495 32.505 -1 32 C-1.10068462 29.57172387 -1.1387176 27.17801589 -1.125 24.75 C-1.12886719 24.08097656 -1.13273437 23.41195312 -1.13671875 22.72265625 C-1.12940423 18.99956769 -0.74761604 15.63211888 0 12 C0.0659735 9.89676466 0.08562245 7.79164276 0.0625 5.6875 C0.05347656 4.61886719 0.04445313 3.55023437 0.03515625 2.44921875 C0.02355469 1.64097656 0.01195312 0.83273437 0 0 Z " fill="#27A859" transform="translate(1431,672)"/>
<path d="M0 0 C0 49.17 0 98.34 0 149 C-0.33 149 -0.66 149 -1 149 C-1 101.15 -1 53.3 -1 4 C-2.32 4.33 -3.64 4.66 -5 5 C-2.74193548 0 -2.74193548 0 0 0 Z " fill="#001D06" transform="translate(1072,411)"/>
<path d="M0 0 C0 3.7392121 -0.84423307 4.19393095 -3.375 6.8125 C-6.33707851 10.04984237 -8.01808195 12.63591976 -9 17 C-10.65 17 -12.3 17 -14 17 C-15.50930183 20.3863251 -15.50930183 20.3863251 -16 24 C-17.57421875 25.078125 -17.57421875 25.078125 -19.6875 26.25 C-24.61490466 29.20294818 -28.1346898 32.40406941 -30 38 C-31.8125 39.75390625 -31.8125 39.75390625 -34 41.5625 C-36.94959179 43.92210327 -36.94959179 43.92210327 -39 47 C-39.66 47 -40.32 47 -41 47 C-41 47.99 -41 48.98 -41 50 C-42.32 49.67 -43.64 49.34 -45 49 C-44.43152344 48.443125 -43.86304688 47.88625 -43.27734375 47.3125 C-38.97381612 43.05926401 -34.81999512 38.75437947 -30.87890625 34.1640625 C-28.62719119 31.57061106 -26.31605282 29.03613024 -24 26.5 C-21.17422616 23.40268033 -18.36781221 20.2959585 -15.625 17.125 C-10.55867113 11.28956578 -5.25717581 5.66290202 0 0 Z " fill="#2EA35A" transform="translate(1143,142)"/>
<path d="M0 0 C0.66 0.99 1.32 1.98 2 3 C1.31292969 3.67546875 0.62585938 4.3509375 -0.08203125 5.046875 C-0.98308594 5.93890625 -1.88414062 6.8309375 -2.8125 7.75 C-3.70582031 8.63171875 -4.59914063 9.5134375 -5.51953125 10.421875 C-7.98153312 12.86454043 -7.98153312 12.86454043 -9.69921875 15.328125 C-10.12847656 15.87984375 -10.55773437 16.4315625 -11 17 C-11.66 17 -12.32 17 -13 17 C-13.21011719 17.53753906 -13.42023437 18.07507813 -13.63671875 18.62890625 C-15.51940795 21.90338288 -18.12213364 24.3317159 -20.8125 26.9375 C-21.33392578 27.44990234 -21.85535156 27.96230469 -22.39257812 28.49023438 C-23.4247285 29.50434467 -24.45870951 30.51659556 -25.49462891 31.52685547 C-27.68122601 33.66664251 -29.84069112 35.83270846 -32 38 C-32 37.01 -32 36.02 -32 35 C-31.34 35 -30.68 35 -30 35 C-29.773125 34.2575 -29.54625 33.515 -29.3125 32.75 C-27.74609154 29.46800133 -25.84480335 28.2047226 -23 26 C-21.68834743 23.88339573 -21.68834743 23.88339573 -21 22 C-20.01 22 -19.02 22 -18 22 C-16.85724148 19.79610856 -15.92420008 17.75510795 -15.1875 15.375 C-13.639337 12.27867401 -12.18158045 12.11355316 -9 11 C-8.34 10.01 -7.68 9.02 -7 8 C-6.34 8 -5.68 8 -5 8 C-5.33 7.01 -5.66 6.02 -6 5 C-4.21653709 1.96811304 -3.40424844 1.13474948 0 0 Z " fill="#2FA65A" transform="translate(1018,462)"/>
<path d="M0 0 C8.36678801 6.72980775 15.19983492 14.89228065 22.22265625 22.97265625 C24.29359487 25.33489173 26.39512848 27.66795853 28.5 30 C32.37699282 34.29594745 36.20502898 38.63151246 40 43 C39.01 43 38.02 43 37 43 C35.75798421 41.4965072 34.51992763 39.98891229 33.328125 38.4453125 C31.98893612 36.77173473 31.98893612 36.77173473 29.375 36 C25.92746991 34.54840838 25.37464299 32.36787533 24 29 C23.67 28.01 23.34 27.02 23 26 C22.34 26 21.68 26 21 26 C21 25.34 21 24.68 21 24 C20.34 24 19.68 24 19 24 C15 19.52941176 15 19.52941176 15 17 C14.34 17 13.68 17 13 17 C11.75923923 15.49802644 10.52078183 13.99387685 9.30859375 12.46875 C7.74465039 10.71339865 6.19739866 9.81385136 4 9 C4.33 8.01 4.66 7.02 5 6 C4.34 6 3.68 6 3 6 C0 2.53846154 0 2.53846154 0 0 Z " fill="#2FA55C" transform="translate(736,203)"/>
<path d="M0 0 C0.33 0.66 0.66 1.32 1 2 C0.154375 2.845625 -0.69125 3.69125 -1.5625 4.5625 C-3.01248278 6.169121 -3.01248278 6.169121 -4 8 C-3.835 9.155 -3.67 10.31 -3.5 11.5 C-3 15 -3 15 -4.02734375 16.77734375 C-5.27845508 18.25025875 -6.63347921 19.63347921 -8 21 C-8.86625 20.690625 -8.86625 20.690625 -9.75 20.375 C-12.51967567 19.91338739 -13.64561267 20.57055055 -16 22 C-16.33 21.34 -16.66 20.68 -17 20 C-15.71580959 18.32756598 -14.42242815 16.66218553 -13.125 15 C-12.04605469 13.6078125 -12.04605469 13.6078125 -10.9453125 12.1875 C-10.30335938 11.465625 -9.66140625 10.74375 -9 10 C-8.34 10 -7.68 10 -7 10 C-6.773125 9.46375 -6.54625 8.9275 -6.3125 8.375 C-4.56617944 5.21499137 -2.3597151 2.7323017 0 0 Z " fill="#23AC56" transform="translate(930,378)"/>
<path d="M0 0 C1.15456216 3.46368648 0.79384513 4.37328784 -0.3125 7.75 C-0.87642453 9.49954147 -1.43878062 11.24958889 -2 13 C-2.3609375 14.01835938 -2.721875 15.03671875 -3.09375 16.0859375 C-4.55196666 21.24761729 -4.2504969 26.5567357 -4.1875 31.875 C-4.18685547 32.93203125 -4.18621094 33.9890625 -4.18554688 35.078125 C-4.61117046 39.88572002 -4.61117046 39.88572002 -3 44 C-2.84107168 45.37149254 -2.7230369 46.74781491 -2.625 48.125 C-2.18445476 52.55143079 -0.84672192 55.93721177 1 60 C1.76838854 62.65187751 2.38564707 65.30629871 3 68 C-0.32012142 65.33031172 -1.25347686 62.13799151 -2.625 58.1875 C-3.05039063 56.98480469 -3.47578125 55.78210938 -3.9140625 54.54296875 C-8.57373439 39.34037019 -7.9736089 19.71600732 -2 5 C-1.43925781 3.58654297 -1.43925781 3.58654297 -0.8671875 2.14453125 C-0.58101562 1.43683594 -0.29484375 0.72914063 0 0 Z " fill="#2EA15A" transform="translate(1300,661)"/>
<path d="M0 0 C2.1875 -0.5 2.1875 -0.5 5 0 C6.5389132 1.95424488 7.70308481 3.96628367 8.88671875 6.15234375 C9.87076977 8.15842761 9.87076977 8.15842761 12 9 C12 8.34 12 7.68 12 7 C14.7019433 7.36512747 16.58390852 7.69869237 18.8125 9.3125 C20 11 20 11 20 15 C19.34 15 18.68 15 18 15 C18 14.34 18 13.68 18 13 C17.34 13 16.68 13 16 13 C17.0209375 14.1446875 17.0209375 14.1446875 18.0625 15.3125 C18.701875 16.199375 19.34125 17.08625 20 18 C19.67 18.99 19.34 19.98 19 21 C18.443125 20.278125 17.88625 19.55625 17.3125 18.8125 C14.23279122 15.06690824 10.77346176 11.76329949 7.32421875 8.359375 C6.45410156 7.49828125 5.58398438 6.6371875 4.6875 5.75 C3.80449219 4.87859375 2.92148437 4.0071875 2.01171875 3.109375 C0 1 0 1 0 0 Z " fill="#24B356" transform="translate(844,505)"/>
<path d="M0 0 C0.66 0 1.32 0 2 0 C3.55078125 1.64453125 3.55078125 1.64453125 5.3125 3.8125 C7.985661 6.98897583 10.39234291 8.9228641 14 11 C14 11.99 14 12.98 14 14 C14.66 14.33 15.32 14.66 16 15 C16 15.66 16 16.32 16 17 C16.66 17 17.32 17 18 17 C18 17.66 18 18.32 18 19 C18.66 19 19.32 19 20 19 C20 19.66 20 20.32 20 21 C20.66 21 21.32 21 22 21 C22.33 21.66 22.66 22.32 23 23 C23.99 23.33 24.98 23.66 26 24 C26 24.99 26 25.98 26 27 C26.66 27 27.32 27 28 27 C30.6875 29.8125 30.6875 29.8125 33 33 C32.67 33.99 32.34 34.98 32 36 C31.39696045 35.351521 31.39696045 35.351521 30.78173828 34.68994141 C21.28152502 24.45933735 21.28152502 24.45933735 11.5 14.5 C3.08947853 6.17386503 3.08947853 6.17386503 0 2 C0 1.34 0 0.68 0 0 Z " fill="#2EA55C" transform="translate(793,450)"/>
<path d="M0 0 C0.33 0 0.66 0 1 0 C1 1.65 1 3.3 1 5 C0.01 5.33 -0.98 5.66 -2 6 C-2.309375 6.804375 -2.61875 7.60875 -2.9375 8.4375 C-4.21307357 11.51388332 -5.03392444 11.74166491 -8 13 C-10.38506416 15.03172132 -10.97677282 15.93031846 -12 19 C-13.77734375 20.6484375 -13.77734375 20.6484375 -15.9375 22.375 C-19.168745 25.08970495 -20.62025409 26.97574108 -22 31 C-24.60391451 32.76394209 -25.80780296 33 -29 33 C-28.31035156 32.24976563 -27.62070312 31.49953125 -26.91015625 30.7265625 C-24.42553437 28.02176736 -21.94486283 25.31338318 -19.46630859 22.60302734 C-18.17266159 21.18876058 -16.87746532 19.77591129 -15.58203125 18.36328125 C-10.77235411 13.07689275 -6.20737299 7.64188072 -1.75 2.0546875 C-0.88375 1.03761719 -0.88375 1.03761719 0 0 Z " fill="#2EA258" transform="translate(1027,270)"/>
<path d="M0 0 C13.2 0 26.4 0 40 0 C40 0.66 40 1.32 40 2 C20.695 1.505 20.695 1.505 1 1 C1 2.65 1 4.3 1 6 C-1.8125 8.0625 -1.8125 8.0625 -5 10 C-6.02323436 11.31558703 -7.03126968 12.64377755 -8 14 C-8.66 14 -9.32 14 -10 14 C-10.33 14.99 -10.66 15.98 -11 17 C-11.33 16.01 -11.66 15.02 -12 14 C-11.21753906 13.15695313 -10.43507813 12.31390625 -9.62890625 11.4453125 C-8.60665175 10.33865166 -7.58452284 9.23187479 -6.5625 8.125 C-6.04623047 7.56941406 -5.52996094 7.01382813 -4.99804688 6.44140625 C-2.17895264 3.45250685 -2.17895264 3.45250685 0 0 Z " fill="#39A15E" transform="translate(1157,125)"/>
<path d="M0 0 C0.66 0.33 1.32 0.66 2 1 C1.67 1.66 1.34 2.32 1 3 C1.99 3.33 2.98 3.66 4 4 C-9.53 4 -23.06 4 -37 4 C-37.66 5.32 -38.32 6.64 -39 8 C-39.99 8.66 -40.98 9.32 -42 10 C-41.125 5.25 -41.125 5.25 -40 3 C-36.1784462 1.72614873 -32.5931553 1.87646812 -28.61328125 1.90234375 C-27.79627243 1.9037587 -26.97926361 1.90517365 -26.13749695 1.90663147 C-23.52912732 1.91222706 -20.92084366 1.92477871 -18.3125 1.9375 C-16.54362103 1.94251557 -14.77474072 1.94707838 -13.00585938 1.95117188 C-8.67053981 1.96219504 -4.33528448 1.97945662 0 2 C0 1.34 0 0.68 0 0 Z " fill="#001400" transform="translate(1194,121)"/>
<path d="M0 0 C1 3 1 3 -0.125 5.4375 C-2.15428773 8.2108599 -4.2672571 9.93377976 -7 12 C-9.35522225 13.7712618 -9.35522225 13.7712618 -11 16 C-11.33448259 19.167832 -11.33448259 19.167832 -11 22 C-12.0725 22.28875 -13.145 22.5775 -14.25 22.875 C-17.1200153 23.73600459 -19.38744547 24.62436288 -22 26 C-19.13778587 21.96354418 -16.25919928 18.12567781 -12.6875 14.6875 C-8.00930478 10.17713241 -4.0455972 5.07305046 0 0 Z " fill="#2BA158" transform="translate(1097,192)"/>
<path d="M0 0 C0.33 1.32 0.66 2.64 1 4 C0.54109375 4.36351562 0.0821875 4.72703125 -0.390625 5.1015625 C-4.40861514 8.39361325 -7.27214484 11.51852367 -10 16 C-11.65171872 18.51348501 -12.68155973 19.81926363 -15.3125 21.3125 C-18.96281274 23.60455684 -21.33298024 26.65476904 -24 30 C-24.66 29.67 -25.32 29.34 -26 29 C-25.61255615 28.5875 -25.2251123 28.175 -24.82592773 27.75 C-16.3183524 18.68469601 -7.91389177 9.59259609 0 0 Z " fill="#31A35D" transform="translate(995,306)"/>
<path d="M0 0 C0 0.33 0 0.66 0 1 C-8.58 1.33 -17.16 1.66 -26 2 C-26.33 2.66 -26.66 3.32 -27 4 C-28.97888961 4.72693904 -30.97954558 5.39816251 -33 6 C-33.66 5.34 -34.32 4.68 -35 4 C-35 3.34 -35 2.68 -35 2 C-23.38768529 -0.53359594 -11.81890737 -2.71900652 0 0 Z " fill="#2B8E4F" transform="translate(1376,624)"/>
<path d="M0 0 C5.08954563 4.11495179 9.45621267 8.54676804 13.7734375 13.46484375 C15.21274641 15.10363583 16.67508405 16.72260802 18.1640625 18.31640625 C18.81117188 19.01636719 19.45828125 19.71632812 20.125 20.4375 C20.70507812 21.05496094 21.28515625 21.67242187 21.8828125 22.30859375 C22.25148438 22.86675781 22.62015625 23.42492187 23 24 C22.67 24.99 22.34 25.98 22 27 C21.3503125 26.0409375 21.3503125 26.0409375 20.6875 25.0625 C19.08760823 22.73253997 19.08760823 22.73253997 16 22 C15.7834375 21.0409375 15.7834375 21.0409375 15.5625 20.0625 C15.376875 19.381875 15.19125 18.70125 15 18 C14.38125 17.690625 13.7625 17.38125 13.125 17.0625 C10.26210126 15.63105063 9.57045582 13.74829769 8 11 C5.99986159 8.8708204 3.90318932 6.91125688 1.75 4.9375 C0 3 0 3 0 0 Z " fill="#31A45E" transform="translate(711,175)"/>
<path d="M0 0 C8.51620605 6.84999182 15.93490229 14.90235344 22 24 C19.94870759 22.97435379 17.90202112 21.94812883 15.875 20.875 C14.04279198 19.85903818 14.04279198 19.85903818 12 20 C12 19.34 12 18.68 12 18 C12.66 18 13.32 18 14 18 C14 17.34 14 16.68 14 16 C13.34 16 12.68 16 12 16 C12 15.34 12 14.68 12 14 C11.34 14 10.68 14 10 14 C8.76995196 12.57048472 7.54628359 11.13429833 6.375 9.65625 C4.84525167 7.74901366 4.84525167 7.74901366 2.1875 5.3125 C0 3 0 3 0 0 Z " fill="#2DA05A" transform="translate(870,352)"/>
<path d="M0 0 C0.33 0.99 0.66 1.98 1 3 C0.34 3 -0.32 3 -1 3 C-1.2475 3.78375 -1.495 4.5675 -1.75 5.375 C-3.15389099 8.32317108 -4.00675737 8.9024777 -7 10 C-7 10.66 -7 11.32 -7 12 C-8.65788785 13.34423339 -10.32576317 14.67618483 -12 16 C-13.76323505 18.12603185 -13.76323505 18.12603185 -15 20 C-15.99 19.67 -16.98 19.34 -18 19 C-12.20862223 12.44191501 -6.25299712 6.11995462 0 0 Z " fill="#001501" transform="translate(963,524)"/>
<path d="M0 0 C2.08559201 3.43509272 2.08559201 3.43509272 1.6875 6.0625 C1.460625 6.701875 1.23375 7.34125 1 8 C0.67 8.99 0.34 9.98 0 11 C-0.99 11 -1.98 11 -3 11 C-3.66 12.32 -4.32 13.64 -5 15 C-5.99 15 -6.98 15 -8 15 C-8.66 16.32 -9.32 17.64 -10 19 C-10 14.81982984 -7.81237857 12.29354042 -5.5625 8.9375 C-2.59970048 4.57576904 -2.59970048 4.57576904 0 0 Z " fill="#041005" transform="translate(1427,725)"/>
<path d="M0 0 C2.475 0.495 2.475 0.495 5 1 C5.33 2.32 5.66 3.64 6 5 C7.32 5.33 8.64 5.66 10 6 C10.33 7.32 10.66 8.64 11 10 C13.31 10.66 15.62 11.32 18 12 C17.34 13.32 16.68 14.64 16 16 C13.09062217 14.69548517 11.13054958 13.3471957 8.984375 10.99609375 C8.45585938 10.42052734 7.92734375 9.84496094 7.3828125 9.25195312 C6.84398437 8.65318359 6.30515625 8.05441406 5.75 7.4375 C5.19570313 6.83486328 4.64140625 6.23222656 4.0703125 5.61132812 C0 1.14501232 0 1.14501232 0 0 Z " fill="#011703" transform="translate(898,382)"/>
<path d="M0 0 C0.86140091 0.0028299 1.72280182 0.00565979 2.61030579 0.00857544 C5.36143894 0.01977013 8.1122465 0.04487329 10.86328125 0.0703125 C12.72851092 0.08034323 14.5937457 0.08946891 16.45898438 0.09765625 C21.03137545 0.11970712 25.60352314 0.15423201 30.17578125 0.1953125 C29.84578125 1.5153125 29.51578125 2.8353125 29.17578125 4.1953125 C28.68078125 3.7003125 28.68078125 3.7003125 28.17578125 3.1953125 C25.22048621 3.03501562 22.28595668 2.93573922 19.328125 2.87890625 C17.99848473 2.8477346 17.99848473 2.8477346 16.64198303 2.81593323 C13.79916425 2.7503385 10.95625008 2.69150698 8.11328125 2.6328125 C6.19074519 2.5896367 4.26821891 2.54602272 2.34570312 2.50195312 C-2.37750543 2.39464707 -7.10081028 2.29340799 -11.82421875 2.1953125 C-7.89117403 -0.42671731 -4.55796806 -0.05617277 0 0 Z " fill="#001601" transform="translate(638.82421875,122.8046875)"/>
<path d="M0 0 C0.640625 1.83984375 0.640625 1.83984375 1 4 C-1.25 6.5625 -1.25 6.5625 -4 9 C-4.556875 9.598125 -5.11375 10.19625 -5.6875 10.8125 C-7 12 -7 12 -9 12 C-9 12.66 -9 13.32 -9 14 C-9.66 14 -10.32 14 -11 14 C-11 14.66 -11 15.32 -11 16 C-12.95927063 17.7143618 -14.95880212 19.38405168 -17 21 C-17.66 20.67 -18.32 20.34 -19 20 C-17.82244141 18.83984375 -17.82244141 18.83984375 -16.62109375 17.65625 C-10.85707327 11.95093374 -5.20451473 6.23075707 0 0 Z " fill="#011F06" transform="translate(1035,448)"/>
<path d="M0 0 C4.95532767 3.86757281 8.96476648 8.18876004 13 13 C9.87438528 14.04187157 8.95319818 14.23843794 6 13 C4.875 11.0625 4.875 11.0625 4 9 C3.34 8.34 2.68 7.68 2 7 C1.28072705 4.68234271 0.6090107 2.34904126 0 0 Z " fill="#23AF59" transform="translate(669,128)"/>
<path d="M0 0 C1.75 0.1875 1.75 0.1875 4 1 C4.639375 1.825 5.27875 2.65 5.9375 3.5 C7.78694767 6.17667656 7.78694767 6.17667656 10.625 6.9375 C11.800625 6.9684375 11.800625 6.9684375 13 7 C13.66 6.34 14.32 5.68 15 5 C15.99 5.33 16.98 5.66 18 6 C15.69 7.98 13.38 9.96 11 12 C9.16364422 10.19047409 7.33083792 8.37759362 5.5 6.5625 C4.97535156 6.04623047 4.45070313 5.52996094 3.91015625 4.99804688 C2.58775448 3.68423213 1.29164432 2.34406495 0 1 C0 0.67 0 0.34 0 0 Z " fill="#2DA35A" transform="translate(901,565)"/>
<path d="M0 0 C1.485 0.99 1.485 0.99 3 2 C3 2.99 3 3.98 3 5 C3.59683594 5.25910156 4.19367187 5.51820313 4.80859375 5.78515625 C7.16258437 7.09013144 8.38285656 8.35474213 10.0625 10.4375 C11.9460952 12.75077474 13.85797194 14.9215336 16 17 C15.67 17.66 15.34 18.32 15 19 C9.72 13.72 4.44 8.44 -1 3 C-0.67 2.01 -0.34 1.02 0 0 Z " fill="#2FA65E" transform="translate(764,418)"/>
<path d="M0 0 C0.66 0.33 1.32 0.66 2 1 C-0.56447139 6.80380367 -3.72529084 10.48352723 -9 14 C-9.33 13.34 -9.66 12.68 -10 12 C-9.0625 9.875 -9.0625 9.875 -8 8 C-7.01 8 -6.02 8 -5 8 C-4.9175 7.4225 -4.835 6.845 -4.75 6.25 C-3.79468987 3.3840696 -2.21530827 2.0009236 0 0 Z " fill="#27AE5B" transform="translate(1069,408)"/>
<path d="M0 0 C0.33 0.99 0.66 1.98 1 3 C1.99 3 2.98 3 4 3 C4 3.66 4 4.32 4 5 C5.32 5 6.64 5 8 5 C8 5.99 8 6.98 8 8 C7.34 8 6.68 8 6 8 C6 8.99 6 9.98 6 11 C6.66 11 7.32 11 8 11 C7.67 11.99 7.34 12.98 7 14 C5.84604289 12.58994275 4.70212534 11.17166542 3.5625 9.75 C2.92441406 8.96109375 2.28632812 8.1721875 1.62890625 7.359375 C0.09273722 5.13432442 -0.67583689 3.66403135 -1 1 C-0.67 0.67 -0.34 0.34 0 0 Z " fill="#2AAA58" transform="translate(1304,728)"/>
<path d="M0 0 C7.53217439 3.380453 12.74308054 10.84828574 18 17 C15 17 15 17 12.3125 14.625 C10 12 10 12 10 10 C9.01 9.67 8.02 9.34 7 9 C7 8.34 7 7.68 7 7 C6.01 7 5.02 7 4 7 C2.45220457 4.73783745 1.22387717 2.44775434 0 0 Z " fill="#2C9C58" transform="translate(894,380)"/>
<path d="M0 0 C0.33 0.99 0.66 1.98 1 3 C0.02727325 4.35335895 -0.9739266 5.68662604 -2 7 C-2 7.99 -2 8.98 -2 10 C-4.25 11.75 -4.25 11.75 -7 13 C-9.171875 12.578125 -9.171875 12.578125 -11 12 C-10.54109375 11.55269531 -10.0821875 11.10539062 -9.609375 10.64453125 C-6.16447701 7.25029352 -2.92744915 3.86423288 0 0 Z " fill="#27A558" transform="translate(951,355)"/>
<path d="M0 0 C0.66 0.33 1.32 0.66 2 1 C-1.88309282 4.64775386 -4.71201818 5.58525633 -10 6 C-10 6.66 -10 7.32 -10 8 C-15.2734375 11.22265625 -15.2734375 11.22265625 -17 12 C-17.66 11.67 -18.32 11.34 -19 11 C-13.24835269 6.20421385 -7.13214291 2.41340189 0 0 Z " fill="#2EA35D" transform="translate(1338,627)"/>
<path d="M0 0 C2.26953125 -0.29296875 2.26953125 -0.29296875 5 0 C6.94921875 2.01171875 6.94921875 2.01171875 8.6875 4.6875 C9.26886719 5.55761719 9.85023438 6.42773438 10.44921875 7.32421875 C11.90357751 9.83362871 13.00521899 12.28027853 14 15 C12.9029946 13.9029946 11.80635878 12.80561849 10.7109375 11.70703125 C9.36694043 10.36610267 8.01666607 9.03146541 6.6640625 7.69921875 C5.43816406 6.48685547 5.43816406 6.48685547 4.1875 5.25 C3.39730469 4.47140625 2.60710938 3.6928125 1.79296875 2.890625 C0 1 0 1 0 0 Z " fill="#28A156" transform="translate(844,505)"/>
<path d="M0 0 C0.99 0.33 1.98 0.66 3 1 C-1.29785078 6.03163018 -5.63425542 11.02718443 -10 16 C-10.33 15.01 -10.66 14.02 -11 13 C-9.35830472 10.97945196 -7.69088222 8.97956942 -6 7 C-6 6.01 -6 5.02 -6 4 C-4.33333333 4 -2.66666667 4 -1 4 C-0.67 2.68 -0.34 1.36 0 0 Z " fill="#021905" transform="translate(1105,180)"/>
<path d="M0 0 C-2.87209787 2.36798831 -5.36911918 3.64832592 -8.9375 4.6875 C-9.77152344 4.93886719 -10.60554688 5.19023438 -11.46484375 5.44921875 C-14.05592311 6.0121497 -16.35727613 6.09927943 -19 6 C-17 3 -17 3 -14.90625 2.3046875 C-14.1121875 2.16289063 -13.318125 2.02109375 -12.5 1.875 C-2.11945392 -0.04607509 -2.11945392 -0.04607509 0 0 Z " fill="#2BAB60" transform="translate(1396,756)"/>
<path d="M0 0 C-3.74381897 4.09480199 -7.8668907 7.7448683 -13 10 C-13.99 9.67 -14.98 9.34 -16 9 C-11.25 6 -11.25 6 -9 6 C-9 5.01 -9 4.02 -9 3 C-6.59675799 -0.60486301 -4.07892328 -0.27192822 0 0 Z " fill="#2CA057" transform="translate(1412,746)"/>
<path d="M0 0 C4.17799643 2.08899822 4.92391901 3.05544612 7 7 C5.35 7 3.7 7 2 7 C2 8.32 2 9.64 2 11 C1.34 11 0.68 11 0 11 C0 7.37 0 3.74 0 0 Z " fill="#1FB651" transform="translate(848,328)"/>
<path d="M0 0 C4.04735532 1.40016617 6.98480422 3.3181237 10.3125 6 C11.19550781 6.70125 12.07851562 7.4025 12.98828125 8.125 C13.65214844 8.74375 14.31601563 9.3625 15 10 C15 10.66 15 11.32 15 12 C8.71338212 10.23188872 3.5546234 5.3319351 0 0 Z " fill="#30A259" transform="translate(1312,742)"/>
<path d="M0 0 C0.99 0.33 1.98 0.66 3 1 C-1.62 5.62 -6.24 10.24 -11 15 C-11.66 14.34 -12.32 13.68 -13 13 C-12.34 13 -11.68 13 -11 13 C-10.67 12.01 -10.34 11.02 -10 10 C-9.34 10 -8.68 10 -8 10 C-8 9.34 -8 8.68 -8 8 C-6.52295788 6.74772516 -5.04172601 5.49833478 -3.5078125 4.31640625 C-1.73237056 2.88235909 -1.73237056 2.88235909 0 0 Z " fill="#32A75F" transform="translate(941,544)"/>
<path d="M0 0 C4.52615993 3.67832017 8.39424999 7.41086363 12 12 C11.67 12.66 11.34 13.32 11 14 C8.12470182 12.71107323 5.94991702 11.50703617 4 9 C3.3125 6.3125 3.3125 6.3125 3 4 C2.34 4 1.68 4 1 4 C0.67 2.68 0.34 1.36 0 0 Z " fill="#2DA65A" transform="translate(808,283)"/>
<path d="M0 0 C0.33 0.99 0.66 1.98 1 3 C0.01 3.495 0.01 3.495 -1 4 C-1.45375 4.78375 -1.9075 5.5675 -2.375 6.375 C-4.02954865 9.04773243 -5.27219124 10.46560757 -8 12 C-8.99 11.67 -9.98 11.34 -11 11 C-7.37 7.37 -3.74 3.74 0 0 Z " fill="#022209" transform="translate(1001,484)"/>
<path d="M0 0 C6.01059682 4.37134314 10.61756248 10.05050907 15 16 C11.29282023 15.44717495 9.85791763 14.10093677 7.5 11.25 C6.90058594 10.53070313 6.30117188 9.81140625 5.68359375 9.0703125 C4.85021484 8.04550781 4.85021484 8.04550781 4 7 C3.195625 6.05125 2.39125 5.1025 1.5625 4.125 C0 2 0 2 0 0 Z " fill="#329A5A" transform="translate(855,335)"/>
<path d="M0 0 C-1.52235436 3.04470873 -4.18424486 4.20270948 -7 6 C-8.32 5.34 -9.64 4.68 -11 4 C-11 3.34 -11 2.68 -11 2 C-3.375 0 -3.375 0 0 0 Z " fill="#27A255" transform="translate(1352,624)"/>
<path d="M0 0 C0.66 0.99 1.32 1.98 2 3 C0.37660195 4.70884005 -1.29319053 6.37446717 -3 8 C-3.66 8 -4.32 8 -5 8 C-5.33 7.01 -5.66 6.02 -6 5 C-4.21653709 1.96811304 -3.40424844 1.13474948 0 0 Z " fill="#28B059" transform="translate(1018,462)"/>
<path d="M0 0 C0.33 0.66 0.66 1.32 1 2 C-1.16798732 7.4770206 -1.16798732 7.4770206 -4.1875 9.375 C-4.785625 9.58125 -5.38375 9.7875 -6 10 C-6 6 -6 6 -4.6875 4.296875 C-4.130625 3.78640625 -3.57375 3.2759375 -3 2.75 C-2.1646875 1.96882812 -2.1646875 1.96882812 -1.3125 1.171875 C-0.879375 0.78515625 -0.44625 0.3984375 0 0 Z " fill="#2BAD5C" transform="translate(1064,230)"/>
<path d="M0 0 C0.33 1.32 0.66 2.64 1 4 C-2.12488567 6.52394612 -5.31314387 8.39701907 -9 10 C-9.66 9.67 -10.32 9.34 -11 9 C-10.37351562 8.51789062 -9.74703125 8.03578125 -9.1015625 7.5390625 C-7.87566406 6.59160156 -7.87566406 6.59160156 -6.625 5.625 C-5.81289062 4.99851562 -5.00078125 4.37203125 -4.1640625 3.7265625 C-1.95776805 2.03226506 -1.95776805 2.03226506 0 0 Z " fill="#011B05" transform="translate(1415,743)"/>
<path d="M0 0 C1.65 0.33 3.3 0.66 5 1 C5 1.99 5 2.98 5 4 C3 5.6875 3 5.6875 1 7 C1.33 5.68 1.66 4.36 2 3 C1.01 4.485 1.01 4.485 0 6 C-0.66 6 -1.32 6 -2 6 C-2 4.68 -2 3.36 -2 2 C-1.34 2 -0.68 2 0 2 C0 1.34 0 0.68 0 0 Z " fill="#26AF58" transform="translate(980,498)"/>
<path d="M0 0 C0.66 0.66 1.32 1.32 2 2 C-5.11389522 9.66742597 -5.11389522 9.66742597 -10 11 C-6.79239749 7.19364503 -3.59253891 3.45436433 0 0 Z " fill="#012208" transform="translate(937,551)"/>
<path d="M0 0 C4.52615993 3.67832017 8.39424999 7.41086363 12 12 C11.01 12 10.02 12 9 12 C9 11.34 9 10.68 9 10 C8.236875 9.773125 7.47375 9.54625 6.6875 9.3125 C3.40615736 7.70998383 2.57962712 6.2382356 1 3 C0.67 2.01 0.34 1.02 0 0 Z " fill="#32A35E" transform="translate(823,300)"/>
<path d="M0 0 C0.99 0.33 1.98 0.66 3 1 C-0.33333333 4.33333333 -3.66666667 7.66666667 -7 11 C-7 9.68 -7 8.36 -7 7 C-6.34 7 -5.68 7 -5 7 C-4.9175 6.401875 -4.835 5.80375 -4.75 5.1875 C-3.77590452 2.34638817 -2.59505753 1.45017921 0 0 Z " fill="#002006" transform="translate(1313,640)"/>
<path d="M0 0 C0 3.7185142 -0.85912168 4.31804606 -3.3125 7 C-3.92738281 7.680625 -4.54226563 8.36125 -5.17578125 9.0625 C-6.75544728 10.74026092 -8.35810926 12.38336911 -10 14 C-10.66 13.67 -11.32 13.34 -12 13 C-8.04 8.71 -4.08 4.42 0 0 Z " fill="#34A760" transform="translate(1143,142)"/>
<path d="M0 0 C0.66 0.66 1.32 1.32 2 2 C-0.31 4.64 -2.62 7.28 -5 10 C-5.33 8.68 -5.66 7.36 -6 6 C-3.625 3.3125 -3.625 3.3125 -1 1 C-0.67 0.67 -0.34 0.34 0 0 Z " fill="#011603" transform="translate(1070,219)"/>
<path d="M0 0 C1.13199353 0.9080162 2.25532363 1.82683826 3.375 2.75 C4.00148438 3.26046875 4.62796875 3.7709375 5.2734375 4.296875 C7.08312318 6.08199481 8.00117455 7.67949644 9 10 C5.20577003 8.6021258 2.91783445 7.63170569 0.875 4 C0 2 0 2 0 0 Z " fill="#2FA55C" transform="translate(702,165)"/>
<path d="M0 0 C0.99 0 1.98 0 3 0 C1.4169423 4.2742558 -1.50568404 6.26531794 -5 9 C-4.38722388 6.03824877 -3.74627478 4.61941217 -2 2 C-1.34 2 -0.68 2 0 2 C0 1.34 0 0.68 0 0 Z " fill="#30A159" transform="translate(1025,455)"/>
<path d="M0 0 C3.92582871 1.30860957 6.3987937 2.74849213 9 6 C9.75 8.75 9.75 8.75 10 11 C6.40365256 7.50640535 3.16548033 3.88901869 0 0 Z " fill="#012608" transform="translate(747,214)"/>
<path d="M0 0 C0.99 0.33 1.98 0.66 3 1 C0.03 4.3 -2.94 7.6 -6 11 C-6.33 10.01 -6.66 9.02 -7 8 C-4.93569642 5.05099488 -2.6070773 2.47672343 0 0 Z " fill="#012006" transform="translate(1120,164)"/>
<path d="M0 0 C-1.49097658 3.7952131 -3.75700849 5.61042731 -7 8 C-7 6.68 -7 5.36 -7 4 C-6.34 4 -5.68 4 -5 4 C-5 3.01 -5 2.02 -5 1 C-3 0 -3 0 0 0 Z " fill="#26A458" transform="translate(969,517)"/>
<path d="M0 0 C2.31 1.98 4.62 3.96 7 6 C3.37673261 7.2077558 2.35853631 6.54311128 -1 5 C-0.67 3.35 -0.34 1.7 0 0 Z " fill="#011806" transform="translate(849,511)"/>
<path d="M0 0 C1.12894876 0.93274109 2.25300876 1.87140122 3.375 2.8125 C4.00148438 3.33457031 4.62796875 3.85664063 5.2734375 4.39453125 C7 6 7 6 9 9 C8.34 9.66 7.68 10.32 7 11 C6.87625 10.071875 6.87625 10.071875 6.75 9.125 C6.20605562 6.82027141 6.20605562 6.82027141 4 5.9375 C3.34 5.628125 2.68 5.31875 2 5 C1.67 4.01 1.34 3.02 1 2 C0.34 1.67 -0.32 1.34 -1 1 C-0.67 0.67 -0.34 0.34 0 0 Z " fill="#011602" transform="translate(821,482)"/>
<path d="M0 0 C0.99 0.66 1.98 1.32 3 2 C0.36 4.97 -2.28 7.94 -5 11 C-5.33 10.01 -5.66 9.02 -6 8 C-5.38125 7.79375 -4.7625 7.5875 -4.125 7.375 C-1.15346355 5.45224112 -0.86975341 3.33405473 0 0 Z " fill="#011E06" transform="translate(1020,274)"/>
<path d="M0 0 C2.3125 0.1875 2.3125 0.1875 5 1 C6.625 3.3125 6.625 3.3125 8 6 C8.98244845 7.34631825 9.97676564 8.68441297 11 10 C10.67 10.66 10.34 11.32 10 12 C8.51814875 10.37744772 7.03959744 8.75188112 5.5625 7.125 C4.73878906 6.22007812 3.91507813 5.31515625 3.06640625 4.3828125 C1 2 1 2 0 0 Z " fill="#021E05" transform="translate(728,193)"/>
<path d="M0 0 C2.475 0.495 2.475 0.495 5 1 C5.33 2.32 5.66 3.64 6 5 C5.34 5 4.68 5 4 5 C4 5.66 4 6.32 4 7 C3.34 7 2.68 7 2 7 C2 5.35 2 3.7 2 2 C1.34 2 0.68 2 0 2 C0 1.34 0 0.68 0 0 Z " fill="#29AD59" transform="translate(1408,639)"/>
<path d="M0 0 C1.32 0.33 2.64 0.66 4 1 C2.60667426 4.36720387 1.0210714 5.9859524 -2 8 C-2.33 6.68 -2.66 5.36 -3 4 C-2.01 4.33 -1.02 4.66 0 5 C0 3.35 0 1.7 0 0 Z " fill="#25A959" transform="translate(1044,433)"/>
<path d="M0 0 C1 2 1 2 0.4375 4.5625 C-1 7 -1 7 -4.125 7.8125 C-5.548125 7.9053125 -5.548125 7.9053125 -7 8 C-6.02133662 6.85373678 -5.04205413 5.70800212 -4.0625 4.5625 C-3.51722656 3.92441406 -2.97195313 3.28632813 -2.41015625 2.62890625 C-1.63204305 1.73008851 -0.84063472 0.84063472 0 0 Z " fill="#27A457" transform="translate(1035,262)"/>
<path d="M0 0 C3.50695293 0.5653911 5.02732613 1.68722726 7.3125 4.375 C7.84488281 4.98085937 8.37726562 5.58671875 8.92578125 6.2109375 C9.28027344 6.80132812 9.63476562 7.39171875 10 8 C9.67 8.99 9.34 9.98 9 11 C7.49703315 9.35687553 5.99769719 7.71042916 4.5 6.0625 C3.6646875 5.14597656 2.829375 4.22945312 1.96875 3.28515625 C0 1 0 1 0 0 Z " fill="#012708" transform="translate(780,251)"/>
<path d="M0 0 C0.33 1.32 0.66 2.64 1 4 C-0.65 4 -2.3 4 -4 4 C-4.33 4.99 -4.66 5.98 -5 7 C-5.99 6.67 -6.98 6.34 -8 6 C-3.375 1.125 -3.375 1.125 0 0 Z " fill="#22A856" transform="translate(1133,155)"/>
<path d="M0 0 C3.45925163 1.2491742 6.14693203 2.67527795 9 5 C6.36 5 3.72 5 1 5 C0.67 3.35 0.34 1.7 0 0 Z " fill="#011A05" transform="translate(1322,752)"/>
<path d="M0 0 C0.66 0 1.32 0 2 0 C2.99 1.98 3.98 3.96 5 6 C4.34 6.66 3.68 7.32 3 8 C1.35 6.02 -0.3 4.04 -2 2 C-1.34 2 -0.68 2 0 2 C0 1.34 0 0.68 0 0 Z " fill="#24A855" transform="translate(866,524)"/>
<path d="M0 0 C2.64752004 2.57784846 4.94432065 4.91648098 7 8 C6.01 8.33 5.02 8.66 4 9 C0 4.5 0 4.5 0 0 Z " fill="#041B07" transform="translate(842,503)"/>
<path d="M0 0 C0.33 1.32 0.66 2.64 1 4 C-1.97 6.475 -1.97 6.475 -5 9 C-5.66 8.67 -6.32 8.34 -7 8 C-4.69 5.36 -2.38 2.72 0 0 Z " fill="#04230A" transform="translate(1058,424)"/>
<path d="M0 0 C0.99 0.66 1.98 1.32 3 2 C0.69 4.64 -1.62 7.28 -4 10 C-5 6 -5 6 -4.00390625 4.296875 C-2.66927083 2.86458333 -1.33463542 1.43229167 0 0 Z " fill="#001802" transform="translate(1084,203)"/>
<path d="M0 0 C1.2077558 3.62326739 0.54311128 4.64146369 -1 8 C-1.99 8 -2.98 8 -4 8 C-4.66 9.32 -5.32 10.64 -6 12 C-6 8.36804504 -5.04546845 7.25286089 -3 4.3125 C-2.443125 3.50425781 -1.88625 2.69601562 -1.3125 1.86328125 C-0.879375 1.24839844 -0.44625 0.63351562 0 0 Z " fill="#022108" transform="translate(1423,732)"/>
<path d="M0 0 C0.99 0 1.98 0 3 0 C1.50902342 3.7952131 -0.75700849 5.61042731 -4 8 C-2.25 2.25 -2.25 2.25 0 0 Z " fill="#25B45F" transform="translate(951,532)"/>
<path d="M0 0 C1.12588014 0.95729916 2.2506715 1.91587895 3.375 2.875 C4.00148438 3.40867187 4.62796875 3.94234375 5.2734375 4.4921875 C6.55836651 5.61432007 7.79371975 6.79371975 9 8 C9 8.99 9 9.98 9 11 C8.34 11 7.68 11 7 11 C5.63636792 9.02053408 4.30581356 7.0180755 3 5 C2.4225 4.4225 1.845 3.845 1.25 3.25 C0.8375 2.8375 0.425 2.425 0 2 C0 1.34 0 0.68 0 0 Z " fill="#2FA45E" transform="translate(789,262)"/>
<path d="M0 0 C0.33 1.32 0.66 2.64 1 4 C0.01 4 -0.98 4 -2 4 C-2.2475 4.804375 -2.495 5.60875 -2.75 6.4375 C-3.1625 7.283125 -3.575 8.12875 -4 9 C-6.078125 9.66015625 -6.078125 9.66015625 -8 10 C-7.04367001 8.70684939 -6.08486149 7.41553147 -5.125 6.125 C-4.59132813 5.40570313 -4.05765625 4.68640625 -3.5078125 3.9453125 C-2 2 -2 2 0 0 Z " fill="#309855" transform="translate(1074,218)"/>
<path d="M0 0 C5.875 4.625 5.875 4.625 7 8 C5.35 8 3.7 8 2 8 C1.33333333 5.33333333 0.66666667 2.66666667 0 0 Z " fill="#26A254" transform="translate(669,128)"/>
<path d="M0 0 C0.66 0.66 1.32 1.32 2 2 C1.360625 2.4125 0.72125 2.825 0.0625 3.25 C-2.20990931 5.17810487 -2.60196439 6.11424181 -3 9 C-4.32 8.34 -5.64 7.68 -7 7 C-4.69 4.69 -2.38 2.38 0 0 Z " fill="#29A057" transform="translate(938,370)"/>
<path d="M0 0 C-0.3125 2.375 -0.3125 2.375 -1 5 C-1.99 5.66 -2.98 6.32 -4 7 C-4.6875 5.1875 -4.6875 5.1875 -5 3 C-3.38441968 0.84589291 -2.74502455 0 0 0 Z " fill="#021706" transform="translate(1038,256)"/>
<path d="M0 0 C0.33 0.66 0.66 1.32 1 2 C-0.98 4.97 -0.98 4.97 -3 8 C-3.99 7.67 -4.98 7.34 -6 7 C-4.02 4.69 -2.04 2.38 0 0 Z " fill="#022309" transform="translate(951,536)"/>
<path d="M0 0 C1.65 0 3.3 0 5 0 C4.04578192 1.14926266 3.08647955 2.29430541 2.125 3.4375 C1.59132813 4.07558594 1.05765625 4.71367187 0.5078125 5.37109375 C-1 7 -1 7 -3 8 C-2.690625 7.236875 -2.38125 6.47375 -2.0625 5.6875 C-1.32106407 3.81210323 -0.63771783 1.91315348 0 0 Z " fill="#2AAE5E" transform="translate(975,506)"/>
<path d="M0 0 C0.33 0.66 0.66 1.32 1 2 C-1.17508418 6.69360269 -1.17508418 6.69360269 -4.1875 7.8125 C-4.785625 7.874375 -5.38375 7.93625 -6 8 C-4.55746343 4.63408134 -2.66735273 2.48952921 0 0 Z " fill="#032C0D" transform="translate(1015,469)"/>
<path d="M0 0 C0.99 0.66 1.98 1.32 3 2 C1.625 4 1.625 4 0 6 C-0.66 6 -1.32 6 -2 6 C-2.33 6.66 -2.66 7.32 -3 8 C-2.7525 7.1028125 -2.7525 7.1028125 -2.5 6.1875 C-1.8885876 3.88655664 -1.8885876 3.88655664 -2 1 C-1.34 0.67 -0.68 0.34 0 0 Z " fill="#021306" transform="translate(923,382)"/>
<path d="M0 0 C0.66 0.66 1.32 1.32 2 2 C1.67 2.66 1.34 3.32 1 4 C0.34 4 -0.32 4 -1 4 C-1 4.66 -1 5.32 -1 6 C-2.65 6.33 -4.3 6.66 -6 7 C-4.02 4.69 -2.04 2.38 0 0 Z " fill="#2FA95E" transform="translate(1054,241)"/>
<path d="M0 0 C5.57142857 5.14285714 5.57142857 5.14285714 6 9 C1.3125 5.484375 1.3125 5.484375 0 4 C0 2.68 0 1.36 0 0 Z " fill="#2E9955" transform="translate(820,477)"/>
<path d="M0 0 C2.64752004 2.57784846 4.94432065 4.91648098 7 8 C6.01 8.33 5.02 8.66 4 9 C3.71125 8.195625 3.4225 7.39125 3.125 6.5625 C2.26737432 3.8673532 2.26737432 3.8673532 0 3 C0 2.01 0 1.02 0 0 Z " fill="#031B06" transform="translate(760,417)"/>
<path d="M0 0 C0.66 0.66 1.32 1.32 2 2 C0.515 4.475 0.515 4.475 -1 7 C-1.66 6.67 -2.32 6.34 -3 6 C-2.42655063 3.13275314 -2.1385485 2.1385485 0 0 Z " fill="#031102" transform="translate(1062,420)"/>
<path d="M0 0 C0.99 0 1.98 0 3 0 C1.50902342 3.7952131 -0.75700849 5.61042731 -4 8 C-3.34 6.35 -2.68 4.7 -2 3 C-1.34 3 -0.68 3 0 3 C0 2.01 0 1.02 0 0 Z " fill="#001D03" transform="translate(972,328)"/>
<path d="M0 0 C5.99725275 2.10714286 5.99725275 2.10714286 8 5 C7.5703125 7.1015625 7.5703125 7.1015625 7 9 C5.83037314 7.69013727 4.66437056 6.3770374 3.5 5.0625 C2.8503125 4.33160156 2.200625 3.60070312 1.53125 2.84765625 C0 1 0 1 0 0 Z " fill="#001B02" transform="translate(712,175)"/>
<path d="M0 0 C-2.97 2.475 -2.97 2.475 -6 5 C-6 3.35 -6 1.7 -6 0 C-3 -1 -3 -1 0 0 Z " fill="#30A85C" transform="translate(1040,444)"/>
<path d="M0 0 C3.82946843 1.45255699 5.12050295 3.42895561 7 7 C6.401875 6.690625 5.80375 6.38125 5.1875 6.0625 C2.91043228 4.89790296 2.91043228 4.89790296 0 4 C0 2.68 0 1.36 0 0 Z " fill="#2CA15B" transform="translate(848,328)"/>
<path d="M0 0 C1.98 1.65 3.96 3.3 6 5 C5.67 5.99 5.34 6.98 5 8 C2.5 5.6875 2.5 5.6875 0 3 C0 2.01 0 1.02 0 0 Z " fill="#30AE65" transform="translate(840,319)"/>
<path d="M0 0 C4.42857143 5.14285714 4.42857143 5.14285714 5 9 C2.35247996 6.42215154 0.05567935 4.08351902 -2 1 C-1.34 0.67 -0.68 0.34 0 0 Z " fill="#021F06" transform="translate(742,205)"/>
<path d="M0 0 C3 2 3 2 5 5 C4.67 5.99 4.34 6.98 4 8 C2.35 5.69 0.7 3.38 -1 1 C-0.67 0.67 -0.34 0.34 0 0 Z " fill="#021704" transform="translate(707,167)"/>
<path d="M0 0 C1.32 0.33 2.64 0.66 4 1 C1.03 3.475 1.03 3.475 -2 6 C-2.33 5.01 -2.66 4.02 -3 3 C-2.34 3 -1.68 3 -1 3 C-0.67 2.01 -0.34 1.02 0 0 Z " fill="#011A02" transform="translate(1129,153)"/>
<path d="M0 0 C3.7952131 1.49097658 5.61042731 3.75700849 8 7 C6.68 7 5.36 7 4 7 C2.39662274 4.74339496 1.23417783 2.46835565 0 0 Z " fill="#31A55C" transform="translate(894,380)"/>
</svg>
